<?xml version="1.0" encoding="UTF-8"?>
<mxfile host="app.diagrams.net" modified="2024-08-10T06:00:00.000Z" agent="5.0" etag="abc123" version="22.1.16" type="device">
  <diagram name="Use Case Diagram" id="use-case-diagram">
    <mxGraphModel dx="1422" dy="794" grid="1" gridSize="10" guides="1" tooltips="1" connect="1" arrows="1" fold="1" page="1" pageScale="1" pageWidth="1400" pageHeight="1000" math="0" shadow="0">
      <root>
        <mxCell id="0" />
        <mxCell id="1" parent="0" />
        
        <!-- Title -->
        <mxCell id="title" value="USE CASE DIAGRAM SISTEM FASHION PARK" style="text;html=1;strokeColor=none;fillColor=none;align=center;verticalAlign=middle;whiteSpace=wrap;rounded=0;fontSize=24;fontStyle=1;" vertex="1" parent="1">
          <mxGeometry x="400" y="20" width="600" height="40" as="geometry" />
        </mxCell>
        
        <!-- Actors -->
        <mxCell id="pemilik" value="Pemilik" style="shape=umlActor;verticalLabelPosition=bottom;verticalAlign=top;html=1;fillColor=#d5e8d4;strokeColor=#82b366;" vertex="1" parent="1">
          <mxGeometry x="80" y="150" width="30" height="60" as="geometry" />
        </mxCell>
        
        <mxCell id="admin" value="Admin" style="shape=umlActor;verticalLabelPosition=bottom;verticalAlign=top;html=1;fillColor=#dae8fc;strokeColor=#6c8ebf;" vertex="1" parent="1">
          <mxGeometry x="80" y="300" width="30" height="60" as="geometry" />
        </mxCell>
        
        <mxCell id="kasir" value="Kasir" style="shape=umlActor;verticalLabelPosition=bottom;verticalAlign=top;html=1;fillColor=#fff2cc;strokeColor=#d6b656;" vertex="1" parent="1">
          <mxGeometry x="80" y="450" width="30" height="60" as="geometry" />
        </mxCell>
        
        <mxCell id="pelanggan" value="Pelanggan" style="shape=umlActor;verticalLabelPosition=bottom;verticalAlign=top;html=1;fillColor=#f8cecc;strokeColor=#b85450;" vertex="1" parent="1">
          <mxGeometry x="80" y="600" width="30" height="60" as="geometry" />
        </mxCell>
        
        <!-- System Boundary -->
        <mxCell id="system" value="Sistem Fashion Park" style="rounded=1;whiteSpace=wrap;html=1;fillColor=#e1d5e7;strokeColor=#9673a6;fontSize=16;fontStyle=1;" vertex="1" parent="1">
          <mxGeometry x="200" y="100" width="1000" height="800" as="geometry" />
        </mxCell>
        
        <!-- Use Cases for Pemilik -->
        <mxCell id="uc1" value="Lihat Dashboard KPI" style="ellipse;whiteSpace=wrap;html=1;fillColor=#d5e8d4;strokeColor=#82b366;fontSize=12;" vertex="1" parent="1">
          <mxGeometry x="250" y="180" width="120" height="60" as="geometry" />
        </mxCell>
        
        <mxCell id="uc2" value="Lihat Laporan Penjualan" style="ellipse;whiteSpace=wrap;html=1;fillColor=#d5e8d4;strokeColor=#82b366;fontSize=12;" vertex="1" parent="1">
          <mxGeometry x="400" y="180" width="120" height="60" as="geometry" />
        </mxCell>
        
        <mxCell id="uc3" value="Lihat Riwayat Transaksi" style="ellipse;whiteSpace=wrap;html=1;fillColor=#d5e8d4;strokeColor=#82b366;fontSize=12;" vertex="1" parent="1">
          <mxGeometry x="550" y="180" width="120" height="60" as="geometry" />
        </mxCell>
        
        <mxCell id="uc4" value="Analisis Performa Toko" style="ellipse;whiteSpace=wrap;html=1;fillColor=#d5e8d4;strokeColor=#82b366;fontSize=12;" vertex="1" parent="1">
          <mxGeometry x="700" y="180" width="120" height="60" as="geometry" />
        </mxCell>
        
        <mxCell id="uc5" value="Lihat Produk Terlaris" style="ellipse;whiteSpace=wrap;html=1;fillColor=#d5e8d4;strokeColor=#82b366;fontSize=12;" vertex="1" parent="1">
          <mxGeometry x="850" y="180" width="120" height="60" as="geometry" />
        </mxCell>
        
        <!-- Use Cases for Admin -->
        <mxCell id="uc6" value="Lihat Dashboard Statistik" style="ellipse;whiteSpace=wrap;html=1;fillColor=#dae8fc;strokeColor=#6c8ebf;fontSize=12;" vertex="1" parent="1">
          <mxGeometry x="250" y="330" width="120" height="60" as="geometry" />
        </mxCell>
        
        <mxCell id="uc7" value="Kelola Pesanan" style="ellipse;whiteSpace=wrap;html=1;fillColor=#dae8fc;strokeColor=#6c8ebf;fontSize=12;" vertex="1" parent="1">
          <mxGeometry x="400" y="330" width="120" height="60" as="geometry" />
        </mxCell>
        
        <mxCell id="uc8" value="Kelola User" style="ellipse;whiteSpace=wrap;html=1;fillColor=#dae8fc;strokeColor=#6c8ebf;fontSize=12;" vertex="1" parent="1">
          <mxGeometry x="550" y="330" width="120" height="60" as="geometry" />
        </mxCell>
        
        <mxCell id="uc9" value="Lihat Riwayat Transaksi" style="ellipse;whiteSpace=wrap;html=1;fillColor=#dae8fc;strokeColor=#6c8ebf;fontSize=12;" vertex="1" parent="1">
          <mxGeometry x="700" y="330" width="120" height="60" as="geometry" />
        </mxCell>
        
        <mxCell id="uc10" value="Kelola Kategori Produk" style="ellipse;whiteSpace=wrap;html=1;fillColor=#dae8fc;strokeColor=#6c8ebf;fontSize=12;" vertex="1" parent="1">
          <mxGeometry x="850" y="330" width="120" height="60" as="geometry" />
        </mxCell>
        
        <!-- Use Cases for Kasir -->
        <mxCell id="uc11" value="Pencarian Barang" style="ellipse;whiteSpace=wrap;html=1;fillColor=#fff2cc;strokeColor=#d6b656;fontSize=12;" vertex="1" parent="1">
          <mxGeometry x="250" y="480" width="120" height="60" as="geometry" />
        </mxCell>
        
        <mxCell id="uc12" value="Proses Transaksi" style="ellipse;whiteSpace=wrap;html=1;fillColor=#fff2cc;strokeColor=#d6b656;fontSize=12;" vertex="1" parent="1">
          <mxGeometry x="400" y="480" width="120" height="60" as="geometry" />
        </mxCell>
        
        <mxCell id="uc13" value="Print Struk" style="ellipse;whiteSpace=wrap;html=1;fillColor=#fff2cc;strokeColor=#d6b656;fontSize=12;" vertex="1" parent="1">
          <mxGeometry x="550" y="480" width="120" height="60" as="geometry" />
        </mxCell>
        
        <mxCell id="uc14" value="Scan Barcode" style="ellipse;whiteSpace=wrap;html=1;fillColor=#fff2cc;strokeColor=#d6b656;fontSize=12;" vertex="1" parent="1">
          <mxGeometry x="700" y="480" width="120" height="60" as="geometry" />
        </mxCell>
        
        <mxCell id="uc15" value="Lihat Stok Produk" style="ellipse;whiteSpace=wrap;html=1;fillColor=#fff2cc;strokeColor=#d6b656;fontSize=12;" vertex="1" parent="1">
          <mxGeometry x="850" y="480" width="120" height="60" as="geometry" />
        </mxCell>
        
        <mxCell id="uc16" value="Hitung Total & Kembalian" style="ellipse;whiteSpace=wrap;html=1;fillColor=#fff2cc;strokeColor=#d6b656;fontSize=12;" vertex="1" parent="1">
          <mxGeometry x="1000" y="480" width="120" height="60" as="geometry" />
        </mxCell>
        
        <!-- Use Cases for Pelanggan -->
        <mxCell id="uc17" value="Registrasi" style="ellipse;whiteSpace=wrap;html=1;fillColor=#f8cecc;strokeColor=#b85450;fontSize=12;" vertex="1" parent="1">
          <mxGeometry x="250" y="630" width="120" height="60" as="geometry" />
        </mxCell>
        
        <mxCell id="uc18" value="Lihat Katalog" style="ellipse;whiteSpace=wrap;html=1;fillColor=#f8cecc;strokeColor=#b85450;fontSize=12;" vertex="1" parent="1">
          <mxGeometry x="400" y="630" width="120" height="60" as="geometry" />
        </mxCell>
        
        <mxCell id="uc19" value="Shopping Cart" style="ellipse;whiteSpace=wrap;html=1;fillColor=#f8cecc;strokeColor=#b85450;fontSize=12;" vertex="1" parent="1">
          <mxGeometry x="550" y="630" width="120" height="60" as="geometry" />
        </mxCell>
        
        <mxCell id="uc20" value="Checkout & Pembayaran" style="ellipse;whiteSpace=wrap;html=1;fillColor=#f8cecc;strokeColor=#b85450;fontSize=12;" vertex="1" parent="1">
          <mxGeometry x="700" y="630" width="120" height="60" as="geometry" />
        </mxCell>
        
        <mxCell id="uc21" value="Tracking Pesanan" style="ellipse;whiteSpace=wrap;html=1;fillColor=#f8cecc;strokeColor=#b85450;fontSize=12;" vertex="1" parent="1">
          <mxGeometry x="850" y="630" width="120" height="60" as="geometry" />
        </mxCell>
        
        <mxCell id="uc22" value="Lihat Riwayat Belanja" style="ellipse;whiteSpace=wrap;html=1;fillColor=#f8cecc;strokeColor=#b85450;fontSize=12;" vertex="1" parent="1">
          <mxGeometry x="1000" y="630" width="120" height="60" as="geometry" />
        </mxCell>
        
        <!-- Common Use Cases -->
        <mxCell id="uc23" value="Login" style="ellipse;whiteSpace=wrap;html=1;fillColor=#e1d5e7;strokeColor=#9673a6;fontSize=12;" vertex="1" parent="1">
          <mxGeometry x="400" y="780" width="120" height="60" as="geometry" />
        </mxCell>
        
        <mxCell id="uc24" value="Logout" style="ellipse;whiteSpace=wrap;html=1;fillColor=#e1d5e7;strokeColor=#9673a6;fontSize=12;" vertex="1" parent="1">
          <mxGeometry x="550" y="780" width="120" height="60" as="geometry" />
        </mxCell>
        
        <mxCell id="uc25" value="Update Profil" style="ellipse;whiteSpace=wrap;html=1;fillColor=#e1d5e7;strokeColor=#9673a6;fontSize=12;" vertex="1" parent="1">
          <mxGeometry x="700" y="780" width="120" height="60" as="geometry" />
        </mxCell>
        
        <mxCell id="uc26" value="Reset Password" style="ellipse;whiteSpace=wrap;html=1;fillColor=#e1d5e7;strokeColor=#9673a6;fontSize=12;" vertex="1" parent="1">
          <mxGeometry x="850" y="780" width="120" height="60" as="geometry" />
        </mxCell>
        
        <!-- Connections Pemilik -->
        <mxCell id="edge1" edge="1" parent="1" source="pemilik" target="uc1">
          <mxGeometry relative="1" as="geometry" />
        </mxCell>
        
        <mxCell id="edge2" edge="1" parent="1" source="pemilik" target="uc2">
          <mxGeometry relative="1" as="geometry" />
        </mxCell>
        
        <mxCell id="edge3" edge="1" parent="1" source="pemilik" target="uc3">
          <mxGeometry relative="1" as="geometry" />
        </mxCell>
        
        <mxCell id="edge4" edge="1" parent="1" source="pemilik" target="uc4">
          <mxGeometry relative="1" as="geometry" />
        </mxCell>
        
        <mxCell id="edge5" edge="1" parent="1" source="pemilik" target="uc5">
          <mxGeometry relative="1" as="geometry" />
        </mxCell>
        
        <!-- Connections Admin -->
        <mxCell id="edge6" edge="1" parent="1" source="admin" target="uc6">
          <mxGeometry relative="1" as="geometry" />
        </mxCell>
        
        <mxCell id="edge7" edge="1" parent="1" source="admin" target="uc7">
          <mxGeometry relative="1" as="geometry" />
        </mxCell>
        
        <mxCell id="edge8" edge="1" parent="1" source="admin" target="uc8">
          <mxGeometry relative="1" as="geometry" />
        </mxCell>
        
        <mxCell id="edge9" edge="1" parent="1" source="admin" target="uc9">
          <mxGeometry relative="1" as="geometry" />
        </mxCell>
        
        <mxCell id="edge10" edge="1" parent="1" source="admin" target="uc10">
          <mxGeometry relative="1" as="geometry" />
        </mxCell>
        
        <!-- Connections Kasir -->
        <mxCell id="edge11" edge="1" parent="1" source="kasir" target="uc11">
          <mxGeometry relative="1" as="geometry" />
        </mxCell>
        
        <mxCell id="edge12" edge="1" parent="1" source="kasir" target="uc12">
          <mxGeometry relative="1" as="geometry" />
        </mxCell>
        
        <mxCell id="edge13" edge="1" parent="1" source="kasir" target="uc13">
          <mxGeometry relative="1" as="geometry" />
        </mxCell>
        
        <mxCell id="edge14" edge="1" parent="1" source="kasir" target="uc14">
          <mxGeometry relative="1" as="geometry" />
        </mxCell>
        
        <mxCell id="edge15" edge="1" parent="1" source="kasir" target="uc15">
          <mxGeometry relative="1" as="geometry" />
        </mxCell>
        
        <mxCell id="edge16" edge="1" parent="1" source="kasir" target="uc16">
          <mxGeometry relative="1" as="geometry" />
        </mxCell>
        
        <!-- Connections Pelanggan -->
        <mxCell id="edge17" edge="1" parent="1" source="pelanggan" target="uc17">
          <mxGeometry relative="1" as="geometry" />
        </mxCell>
        
        <mxCell id="edge18" edge="1" parent="1" source="pelanggan" target="uc18">
          <mxGeometry relative="1" as="geometry" />
        </mxCell>
        
        <mxCell id="edge19" edge="1" parent="1" source="pelanggan" target="uc19">
          <mxGeometry relative="1" as="geometry" />
        </mxCell>
        
        <mxCell id="edge20" edge="1" parent="1" source="pelanggan" target="uc20">
          <mxGeometry relative="1" as="geometry" />
        </mxCell>
        
        <mxCell id="edge21" edge="1" parent="1" source="pelanggan" target="uc21">
          <mxGeometry relative="1" as="geometry" />
        </mxCell>
        
        <mxCell id="edge22" edge="1" parent="1" source="pelanggan" target="uc22">
          <mxGeometry relative="1" as="geometry" />
        </mxCell>
        
        <!-- Common Connections -->
        <mxCell id="edge23" edge="1" parent="1" source="pemilik" target="uc23">
          <mxGeometry relative="1" as="geometry" />
        </mxCell>
        
        <mxCell id="edge24" edge="1" parent="1" source="admin" target="uc23">
          <mxGeometry relative="1" as="geometry" />
        </mxCell>
        
        <mxCell id="edge25" edge="1" parent="1" source="kasir" target="uc23">
          <mxGeometry relative="1" as="geometry" />
        </mxCell>
        
        <mxCell id="edge26" edge="1" parent="1" source="pelanggan" target="uc23">
          <mxGeometry relative="1" as="geometry" />
        </mxCell>
        
        <mxCell id="edge27" edge="1" parent="1" source="pemilik" target="uc24">
          <mxGeometry relative="1" as="geometry" />
        </mxCell>
        
        <mxCell id="edge28" edge="1" parent="1" source="admin" target="uc24">
          <mxGeometry relative="1" as="geometry" />
        </mxCell>
        
        <mxCell id="edge29" edge="1" parent="1" source="kasir" target="uc24">
          <mxGeometry relative="1" as="geometry" />
        </mxCell>
        
        <mxCell id="edge30" edge="1" parent="1" source="pelanggan" target="uc24">
          <mxGeometry relative="1" as="geometry" />
        </mxCell>
        
        <mxCell id="edge31" edge="1" parent="1" source="pemilik" target="uc25">
          <mxGeometry relative="1" as="geometry" />
        </mxCell>
        
        <mxCell id="edge32" edge="1" parent="1" source="admin" target="uc25">
          <mxGeometry relative="1" as="geometry" />
        </mxCell>
        
        <mxCell id="edge33" edge="1" parent="1" source="kasir" target="uc25">
          <mxGeometry relative="1" as="geometry" />
        </mxCell>
        
        <mxCell id="edge34" edge="1" parent="1" source="pelanggan" target="uc25">
          <mxGeometry relative="1" as="geometry" />
        </mxCell>
        
        <mxCell id="edge35" edge="1" parent="1" source="pemilik" target="uc26">
          <mxGeometry relative="1" as="geometry" />
        </mxCell>
        
        <mxCell id="edge36" edge="1" parent="1" source="admin" target="uc26">
          <mxGeometry relative="1" as="geometry" />
        </mxCell>
        
        <mxCell id="edge37" edge="1" parent="1" source="kasir" target="uc26">
          <mxGeometry relative="1" as="geometry" />
        </mxCell>
        
        <mxCell id="edge38" edge="1" parent="1" source="pelanggan" target="uc26">
          <mxGeometry relative="1" as="geometry" />
        </mxCell>
        
        <!-- Legend -->
        <mxCell id="legend" value="KETERANGAN:" style="text;html=1;strokeColor=none;fillColor=none;align=left;verticalAlign=middle;whiteSpace=wrap;rounded=0;fontSize=14;fontStyle=1;" vertex="1" parent="1">
          <mxGeometry x="200" y="900" width="200" height="30" as="geometry" />
        </mxCell>
        
        <mxCell id="legend_pemilik" value="Pemilik: Dashboard KPI, Laporan, Analisis" style="text;html=1;strokeColor=none;fillColor=#d5e8d4;align=left;verticalAlign=middle;whiteSpace=wrap;rounded=0;fontSize=12;" vertex="1" parent="1">
          <mxGeometry x="200" y="930" width="300" height="20" as="geometry" />
        </mxCell>
        
        <mxCell id="legend_admin" value="Admin: Statistik, Kelola Pesanan & User" style="text;html=1;strokeColor=none;fillColor=#dae8fc;align=left;verticalAlign=middle;whiteSpace=wrap;rounded=0;fontSize=12;" vertex="1" parent="1">
          <mxGeometry x="200" y="950" width="300" height="20" as="geometry" />
        </mxCell>
        
        <mxCell id="legend_kasir" value="Kasir: Transaksi, Scan Barcode, Print Struk" style="text;html=1;strokeColor=none;fillColor=#fff2cc;align=left;verticalAlign=middle;whiteSpace=wrap;rounded=0;fontSize=12;" vertex="1" parent="1">
          <mxGeometry x="200" y="970" width="300" height="20" as="geometry" />
        </mxCell>
        
        <mxCell id="legend_pelanggan" value="Pelanggan: Belanja Online, Checkout, Tracking" style="text;html=1;strokeColor=none;fillColor=#f8cecc;align=left;verticalAlign=middle;whiteSpace=wrap;rounded=0;fontSize=12;" vertex="1" parent="1">
          <mxGeometry x="200" y="990" width="300" height="20" as="geometry" />
        </mxCell>
        
      </root>
    </mxGraphModel>
  </diagram>
</mxfile>
